<?xml version="1.0" encoding="UTF-8" standalone="no"?>
<!-- Created with Inkscape (http://www.inkscape.org/) -->

<svg
   xmlns:dc="http://purl.org/dc/elements/1.1/"
   xmlns:cc="http://creativecommons.org/ns#"
   xmlns:rdf="http://www.w3.org/1999/02/22-rdf-syntax-ns#"
   xmlns:svg="http://www.w3.org/2000/svg"
   xmlns="http://www.w3.org/2000/svg"
   xmlns:sodipodi="http://sodipodi.sourceforge.net/DTD/sodipodi-0.dtd"
   xmlns:inkscape="http://www.inkscape.org/namespaces/inkscape"
   version="1.1"
   id="svg2"
   xml:space="preserve"
   width="816"
   height="1056"
   viewBox="0 0 816 1056"
   sodipodi:docname="figaccum.svg"
   inkscape:version="0.92.3 (2405546, 2018-03-11)"><metadata
     id="metadata8"><rdf:RDF><cc:Work
         rdf:about=""><dc:format>image/svg+xml</dc:format><dc:type
           rdf:resource="http://purl.org/dc/dcmitype/StillImage" /><dc:title /></cc:Work></rdf:RDF></metadata><defs
     id="defs6" /><sodipodi:namedview
     pagecolor="#ffffff"
     bordercolor="#666666"
     borderopacity="1"
     objecttolerance="10"
     gridtolerance="10"
     guidetolerance="10"
     inkscape:pageopacity="0"
     inkscape:pageshadow="2"
     inkscape:window-width="3440"
     inkscape:window-height="1346"
     id="namedview4"
     showgrid="false"
     inkscape:zoom="2.5284424"
     inkscape:cx="120.36872"
     inkscape:cy="707.77739"
     inkscape:window-x="-11"
     inkscape:window-y="-11"
     inkscape:window-maximized="1"
     inkscape:current-layer="g10" /><g
     id="g10"
     inkscape:groupmode="layer"
     inkscape:label="ink_ext_XXXXXX"
     transform="matrix(1.3333333,0,0,-1.3333333,0,1056)"><path
   inkscape:connector-curvature="0"
   id="path20"
   style="fill:none;stroke:#000000;stroke-width:1.29999995;stroke-linecap:square;stroke-linejoin:miter;stroke-miterlimit:3.8599999;stroke-dasharray:none;stroke-opacity:1"
   d="m 308.8,601.9 h 49.6 l 7.1,-7.1 7.1,7.1 h 49.6 L 408,559.3 h -85.1 l -14.1,42.6" /><path
   inkscape:connector-curvature="0"
   id="path22"
   style="fill:none;stroke:#000000;stroke-width:1.29999995;stroke-linecap:butt;stroke-linejoin:miter;stroke-miterlimit:3.8599999;stroke-dasharray:none;stroke-opacity:1"
   d="m 170.5,481.9 h 85 v 42.5 h -85 z" /><path
   inkscape:connector-curvature="0"
   id="path24"
   style="fill:none;stroke:#000000;stroke-width:0.69999999;stroke-linecap:square;stroke-linejoin:miter;stroke-miterlimit:3.8599999;stroke-dasharray:none;stroke-opacity:1"
   d="m 170.5,485.5 7.1,3.5 -7.1,3.6" /><g
   id="g26"><text
   id="text34"
   style="font-variant:normal;font-weight:normal;font-size:9px;font-family:'Times New Roman';-inkscape-font-specification:Times-Roman;writing-mode:lr-tb;fill:#000000;fill-opacity:1;fill-rule:nonzero;stroke:none"
   transform="matrix(1,0,0,-1,176.23,514.18)"><tspan
     id="tspan28"
     y="0"
     x="0">E</tspan><tspan
     id="tspan30"
     y="14.1301"
     x="0">L</tspan><tspan
     id="tspan32"
     sodipodi:role="line"
     y="14.069944"
     x="16.7598 23.257799 27.757799 34.255798 38.755798 41.7528 47.755798 52.255798 56.755798 61.255798 63.757801 67.753799">Down-Counter</tspan></text>

</g><path
   inkscape:connector-curvature="0"
   id="path36"
   style="fill:none;stroke:#000000;stroke-width:0.69999999;stroke-linecap:square;stroke-linejoin:miter;stroke-miterlimit:3.8599999;stroke-dasharray:none;stroke-opacity:1"
   d="m 154.4,517.4 h 16.1" /><path
   inkscape:connector-curvature="0"
   id="path38"
   style="fill:none;stroke:#000000;stroke-width:0.69999999;stroke-linecap:square;stroke-linejoin:miter;stroke-miterlimit:3.8599999;stroke-dasharray:none;stroke-opacity:1"
   d="m 144.1,503.2 h 20.7" /><path
   inkscape:connector-curvature="0"
   id="path40"
   style="fill:none;stroke:#000000;stroke-width:1.10000002;stroke-linecap:butt;stroke-linejoin:miter;stroke-miterlimit:3.8599999;stroke-dasharray:none;stroke-opacity:1"
   d="m 364.4,529.7 1.1,-4.9 1,4.9 h -1 z" /><path
   inkscape:connector-curvature="0"
   id="path42"
   style="fill:#000000;fill-opacity:1;fill-rule:evenodd;stroke:none;stroke-width:0.1"
   d="m 364.4,529.7 1.1,-4.9 1,4.9 h -1" /><path
   inkscape:connector-curvature="0"
   id="path44"
   style="fill:none;stroke:#000000;stroke-width:0.69999999;stroke-linecap:square;stroke-linejoin:miter;stroke-miterlimit:3.8599999;stroke-dasharray:none;stroke-opacity:1"
   d="m 365.5,530.2 v 29" /><path
   inkscape:connector-curvature="0"
   id="path46"
   style="fill:none;stroke:#000000;stroke-width:0.69999999;stroke-linecap:square;stroke-linejoin:miter;stroke-miterlimit:3.8599999;stroke-dasharray:none;stroke-opacity:1"
   d="m 396.3,601.9 v 28.3 h 44.3 V 465.4 h -75.1" /><path
   inkscape:connector-curvature="0"
   id="path48"
   style="fill:#000000;fill-opacity:1;fill-rule:evenodd;stroke:none;stroke-width:0.1"
   d="m 364.3,465.41 v -0.02 c 0,0.668 0.542,1.21 1.21,1.21 h -0.02 c 0.668,0 1.21,-0.542 1.21,-1.21 v 0.02 c 0,-0.668 -0.542,-1.21 -1.21,-1.21 h 0.02 c -0.668,0 -1.21,0.542 -1.21,1.21" /><path
   inkscape:connector-curvature="0"
   id="path50"
   style="fill:none;stroke:#000000;stroke-width:0.69999999;stroke-linecap:butt;stroke-linejoin:miter;stroke-miterlimit:3.8599999;stroke-dasharray:none;stroke-opacity:1"
   d="m 364.3,465.41 v -0.02 c 0,0.668 0.542,1.21 1.21,1.21 h -0.02 c 0.668,0 1.21,-0.542 1.21,-1.21 v 0.02 c 0,-0.668 -0.542,-1.21 -1.21,-1.21 h 0.02 c -0.668,0 -1.21,0.542 -1.21,1.21 z" /><path
   inkscape:connector-curvature="0"
   id="path62"
   style="fill:none;stroke:#000000;stroke-width:1.10000002;stroke-linecap:butt;stroke-linejoin:miter;stroke-miterlimit:3.8599999;stroke-dasharray:none;stroke-opacity:1"
   d="m 332.7,607.2 1,-4.9 1.1,4.9 h -1.1 z" /><path
   inkscape:connector-curvature="0"
   id="path64"
   style="fill:#000000;fill-opacity:1;fill-rule:evenodd;stroke:none;stroke-width:0.1"
   d="m 332.7,607.2 1,-4.9 1.1,4.9 h -1.1" /><path
   inkscape:connector-curvature="0"
   id="path66"
   style="fill:#000000;fill-opacity:1;fill-rule:evenodd;stroke:none;stroke-width:0.1"
   d="M 333.7,636.1 V 607.7" /><path
   inkscape:connector-curvature="0"
   id="path68"
   style="fill:none;stroke:#000000;stroke-width:0.69999999;stroke-linecap:square;stroke-linejoin:miter;stroke-miterlimit:3.8599999;stroke-dasharray:none;stroke-opacity:1"
   d="M 333.7,636.1 V 607.7" /><path
   inkscape:connector-curvature="0"
   id="path70"
   style="fill:none;stroke:#000000;stroke-width:0.69999999;stroke-linecap:square;stroke-linejoin:miter;stroke-miterlimit:3.8599999;stroke-dasharray:none;stroke-opacity:1"
   d="M 128.8,553.3 V 489 h 41.7" /><path
   inkscape:connector-curvature="0"
   id="path72"
   style="fill:none;stroke:#000000;stroke-width:0.69999999;stroke-linecap:square;stroke-linejoin:miter;stroke-miterlimit:3.8599999;stroke-dasharray:none;stroke-opacity:1"
   d="M 213,481.9 V 442.8" /><g
   id="g74"
   transform="translate(10.678511,-146.5329)"><text
   id="text78"
   style="font-variant:normal;font-weight:normal;font-size:9px;font-family:'Times New Roman';-inkscape-font-specification:Times-Roman;writing-mode:lr-tb;fill:#000000;fill-opacity:1;fill-rule:nonzero;stroke:none"
   transform="matrix(1,0,0,-1,344.79,545.74)"><tspan
     id="tspan76"
     sodipodi:role="line"
     y="0"
     x="0 5.0040002 9.5039997">Sum</tspan></text>

</g><path
   inkscape:connector-curvature="0"
   id="path80"
   style="fill:none;stroke:#000000;stroke-width:0.69999999;stroke-linecap:square;stroke-linejoin:miter;stroke-miterlimit:3.8599999;stroke-dasharray:none;stroke-opacity:1"
   d="m 365.5,410.8 v 71.6" /><text
   transform="scale(1,-1)"
   style="font-variant:normal;font-weight:normal;font-size:9px;font-family:'Times New Roman';-inkscape-font-specification:Times-Roman;writing-mode:lr-tb;fill:#000000;fill-opacity:1;fill-rule:nonzero;stroke:none"
   id="text86"
   x="330.47"
   y="-642.37"><tspan
     x="330.47"
     y="-642.37"
     id="tspan84">X</tspan></text>

<text
   transform="scale(1,-1)"
   style="font-style:normal;font-variant:normal;font-size:9.00000023px;font-family:'Times New Roman';-inkscape-font-specification:'Times New Roman, Normal';writing-mode:lr;fill:#000000;fill-opacity:1;fill-rule:nonzero;stroke:none;font-weight:normal;font-stretch:normal;text-anchor:start;text-align:start;font-variant-ligatures:normal;font-variant-caps:normal;font-variant-numeric:normal;font-feature-settings:normal;"
   id="text90"
   x="340.06024"
   y="-619.21997"><tspan
     sodipodi:role="line"
     id="tspan1129">5</tspan></text>

<path
   inkscape:connector-curvature="0"
   id="path92"
   style="fill:none;stroke:#000000;stroke-width:0.69999999;stroke-linecap:square;stroke-linejoin:miter;stroke-miterlimit:3.8599999;stroke-dasharray:none;stroke-opacity:1"
   d="m 337.3,621.3 -7.1,-3" /><path
   inkscape:connector-curvature="0"
   id="path100"
   style="fill:none;stroke:#000000;stroke-width:1.29999995;stroke-linecap:butt;stroke-linejoin:miter;stroke-miterlimit:3.8599999;stroke-dasharray:none;stroke-opacity:1"
   d="m 326.5,481.9 h 77.9 v 42.5 h -77.9 z" /><path
   inkscape:connector-curvature="0"
   id="path102"
   style="fill:none;stroke:#000000;stroke-width:0.69999999;stroke-linecap:square;stroke-linejoin:miter;stroke-miterlimit:3.8599999;stroke-dasharray:none;stroke-opacity:1"
   d="m 326.5,485.5 7.1,3.5 -7.1,3.6" /><g
   id="g104"><text
   id="text112"
   style="font-variant:normal;font-weight:normal;font-size:9px;font-family:'Times New Roman';-inkscape-font-specification:Times-Roman;writing-mode:lr-tb;fill:#000000;fill-opacity:1;fill-rule:nonzero;stroke:none"
   transform="matrix(1,0,0,-1,332.29,514.18)"><tspan
     id="tspan106"
     y="0"
     x="0">E</tspan><tspan
     id="tspan108"
     sodipodi:role="line"
     y="14.1301"
     x="0 6.0029998 9.9989996 13.5 17.496 19.997999">Resetn</tspan><tspan
     id="tspan110"
     sodipodi:role="line"
     y="14.069944"
     x="36.760201 42.763199 46.759201 51.259201 53.7612 57.262199 59.764198 63.760201">Register</tspan></text>

</g><path
   inkscape:connector-curvature="0"
   id="path114"
   style="fill:none;stroke:#000000;stroke-width:0.69999999;stroke-linecap:square;stroke-linejoin:miter;stroke-miterlimit:3.8599999;stroke-dasharray:none;stroke-opacity:1"
   d="m 311.2,517.4 h 15.3" /><path
   inkscape:connector-curvature="0"
   id="path116"
   style="fill:none;stroke:#000000;stroke-width:0.69999999;stroke-linecap:square;stroke-linejoin:miter;stroke-miterlimit:3.8599999;stroke-dasharray:none;stroke-opacity:1"
   d="m 289.2,503.2 h 37.3" /><path
   inkscape:connector-curvature="0"
   id="path118"
   style="fill:none;stroke:#000000;stroke-width:0.69999999;stroke-linecap:square;stroke-linejoin:miter;stroke-miterlimit:3.8599999;stroke-dasharray:none;stroke-opacity:1"
   d="M 274.3,636.1 V 489 h 52.2" /><path
   inkscape:connector-curvature="0"
   id="path120"
   style="fill:#000000;fill-opacity:1;fill-rule:evenodd;stroke:none;stroke-width:0.1"
   d="m 211.8,395.31 v 0.08 c 0,0.668 0.542,1.21 1.21,1.21 h -0.02 c 0.668,0 1.21,-0.542 1.21,-1.21 v -0.08 c 0,-0.668 -0.542,-1.21 -1.21,-1.21 h 0.02 c -0.668,0 -1.21,0.542 -1.21,1.21" /><path
   inkscape:connector-curvature="0"
   id="path122"
   style="fill:none;stroke:#000000;stroke-width:0.69999999;stroke-linecap:butt;stroke-linejoin:miter;stroke-miterlimit:3.8599999;stroke-dasharray:none;stroke-opacity:1"
   d="m 211.8,395.31 v 0.08 c 0,0.668 0.542,1.21 1.21,1.21 h -0.02 c 0.668,0 1.21,-0.542 1.21,-1.21 v -0.08 c 0,-0.668 -0.542,-1.21 -1.21,-1.21 h 0.02 c -0.668,0 -1.21,0.542 -1.21,1.21 z" /><path
   inkscape:connector-curvature="0"
   id="path124"
   style="fill:#000000;fill-opacity:1;fill-rule:evenodd;stroke:none;stroke-width:0.1"
   d="M 144.1,636.1 V 503.2" /><path
   inkscape:connector-curvature="0"
   id="path126"
   style="fill:none;stroke:#000000;stroke-width:0.69999999;stroke-linecap:square;stroke-linejoin:miter;stroke-miterlimit:3.8599999;stroke-dasharray:none;stroke-opacity:1"
   d="M 144.1,636.1 V 503.2" /><path
   inkscape:connector-curvature="0"
   id="path128"
   style="fill:#000000;fill-opacity:1;fill-rule:evenodd;stroke:none;stroke-width:0.1"
   d="M 154.4,395.3 V 517.4" /><path
   inkscape:connector-curvature="0"
   id="path130"
   style="fill:none;stroke:#000000;stroke-width:0.69999999;stroke-linecap:square;stroke-linejoin:miter;stroke-miterlimit:3.8599999;stroke-dasharray:none;stroke-opacity:1"
   d="M 154.4,395.3 V 517.4" /><path
   inkscape:connector-curvature="0"
   id="path132"
   style="fill:#000000;fill-opacity:1;fill-rule:evenodd;stroke:none;stroke-width:0.1"
   d="M 154.4,395.3 H 213" /><path
   inkscape:connector-curvature="0"
   id="path134"
   style="fill:none;stroke:#000000;stroke-width:0.69999999;stroke-linecap:square;stroke-linejoin:miter;stroke-miterlimit:3.8599999;stroke-dasharray:none;stroke-opacity:1"
   d="M 154.4,395.3 H 213" /><path
   inkscape:connector-curvature="0"
   id="path136"
   style="fill:#000000;fill-opacity:1;fill-rule:evenodd;stroke:none;stroke-width:0.1"
   d="M 311.2,395.3 V 517.4" /><path
   inkscape:connector-curvature="0"
   id="path138"
   style="fill:none;stroke:#000000;stroke-width:0.69999999;stroke-linecap:square;stroke-linejoin:miter;stroke-miterlimit:3.8599999;stroke-dasharray:none;stroke-opacity:1"
   d="M 311.2,395.3 V 517.4" /><path
   inkscape:connector-curvature="0"
   id="path140"
   style="fill:#000000;fill-opacity:1;fill-rule:evenodd;stroke:none;stroke-width:0.1"
   d="M 311.2,395.3 H 189.8" /><path
   inkscape:connector-curvature="0"
   id="path142"
   style="fill:none;stroke:#000000;stroke-width:0.69999999;stroke-linecap:square;stroke-linejoin:miter;stroke-miterlimit:3.8599999;stroke-dasharray:none;stroke-opacity:1"
   d="M 311.2,395.3 H 189.8" /><path
   inkscape:connector-curvature="0"
   id="path144"
   style="fill:#000000;fill-opacity:1;fill-rule:evenodd;stroke:none;stroke-width:0.1"
   d="M 289.2,573.4 V 503.2" /><path
   inkscape:connector-curvature="0"
   id="path146"
   style="fill:none;stroke:#000000;stroke-width:0.69999999;stroke-linecap:square;stroke-linejoin:miter;stroke-miterlimit:3.8599999;stroke-dasharray:none;stroke-opacity:1"
   d="M 289.2,573.4 V 503.2" /><path
   inkscape:connector-curvature="0"
   id="path148"
   style="fill:#000000;fill-opacity:1;fill-rule:evenodd;stroke:none;stroke-width:0.1"
   d="M 274.3,553.3 H 128.8" /><path
   inkscape:connector-curvature="0"
   id="path150"
   style="fill:none;stroke:#000000;stroke-width:0.69999999;stroke-linecap:square;stroke-linejoin:miter;stroke-miterlimit:3.8599999;stroke-dasharray:none;stroke-opacity:1"
   d="M 274.3,553.3 H 128.8" /><path
   inkscape:connector-curvature="0"
   id="path152"
   style="fill:#000000;fill-opacity:1;fill-rule:evenodd;stroke:none;stroke-width:0.1"
   d="M 289.2,573.4 H 144.1" /><path
   inkscape:connector-curvature="0"
   id="path154"
   style="fill:none;stroke:#000000;stroke-width:0.69999999;stroke-linecap:square;stroke-linejoin:miter;stroke-miterlimit:3.8599999;stroke-dasharray:none;stroke-opacity:1"
   d="M 289.2,573.4 H 144.1" /><path
   inkscape:connector-curvature="0"
   id="path156"
   style="fill:#000000;fill-opacity:1;fill-rule:evenodd;stroke:none;stroke-width:0.1"
   d="m 273.1,553.31 v -0.02 c 0,0.668 0.542,1.21 1.21,1.21 h -0.02 c 0.668,0 1.21,-0.542 1.21,-1.21 v 0.02 c 0,-0.668 -0.542,-1.21 -1.21,-1.21 h 0.02 c -0.668,0 -1.21,0.542 -1.21,1.21" /><path
   inkscape:connector-curvature="0"
   id="path158"
   style="fill:none;stroke:#000000;stroke-width:0.69999999;stroke-linecap:butt;stroke-linejoin:miter;stroke-miterlimit:3.8599999;stroke-dasharray:none;stroke-opacity:1"
   d="m 273.1,553.31 v -0.02 c 0,0.668 0.542,1.21 1.21,1.21 h -0.02 c 0.668,0 1.21,-0.542 1.21,-1.21 v 0.02 c 0,-0.668 -0.542,-1.21 -1.21,-1.21 h 0.02 c -0.668,0 -1.21,0.542 -1.21,1.21 z" /><path
   inkscape:connector-curvature="0"
   id="path160"
   style="fill:#000000;fill-opacity:1;fill-rule:evenodd;stroke:none;stroke-width:0.1"
   d="m 142.9,573.41 v -0.02 c 0,0.668 0.542,1.21 1.21,1.21 h 0.08 c 0.668,0 1.21,-0.542 1.21,-1.21 v 0.02 c 0,-0.668 -0.542,-1.21 -1.21,-1.21 h -0.08 c -0.668,0 -1.21,0.542 -1.21,1.21" /><path
   inkscape:connector-curvature="0"
   id="path162"
   style="fill:none;stroke:#000000;stroke-width:0.69999999;stroke-linecap:butt;stroke-linejoin:miter;stroke-miterlimit:3.8599999;stroke-dasharray:none;stroke-opacity:1"
   d="m 142.9,573.41 v -0.02 c 0,0.668 0.542,1.21 1.21,1.21 h 0.08 c 0.668,0 1.21,-0.542 1.21,-1.21 v 0.02 c 0,-0.668 -0.542,-1.21 -1.21,-1.21 h -0.08 c -0.668,0 -1.21,0.542 -1.21,1.21 z" /><g
   id="g164"><text
   id="text168"
   style="font-variant:normal;font-weight:normal;font-size:9px;font-family:'Times New Roman';-inkscape-font-specification:Times-Roman;writing-mode:lr-tb;fill:#000000;fill-opacity:1;fill-rule:nonzero;stroke:none"
   transform="matrix(1,0,0,-1,263.33,642.37)"><tspan
     id="tspan166"
     sodipodi:role="line"
     y="0"
     x="0 6.0029998 8.5050001 13.005 17.000999 -131.61 -125.607 -121.611 -118.11 -114.114 -111.612">ClockResetn</tspan></text>

</g><path
   inkscape:connector-curvature="0"
   id="path170"
   style="fill:none;stroke:#000000;stroke-width:1.10000002;stroke-linecap:butt;stroke-linejoin:miter;stroke-miterlimit:3.8599999;stroke-dasharray:none;stroke-opacity:1"
   d="m 211.9,529.8 1,-4.9 1.1,4.9 h -1.1 z" /><path
   inkscape:connector-curvature="0"
   id="path172"
   style="fill:#000000;fill-opacity:1;fill-rule:evenodd;stroke:none;stroke-width:0.1"
   d="m 211.9,529.8 1,-4.9 1.1,4.9 h -1.1" /><path
   inkscape:connector-curvature="0"
   id="path174"
   style="fill:#000000;fill-opacity:1;fill-rule:evenodd;stroke:none;stroke-width:0.1"
   d="M 212.9,636.1 V 530.3" /><path
   inkscape:connector-curvature="0"
   id="path176"
   style="fill:none;stroke:#000000;stroke-width:0.69999999;stroke-linecap:square;stroke-linejoin:miter;stroke-miterlimit:3.8599999;stroke-dasharray:none;stroke-opacity:1"
   d="M 212.9,636.1 V 530.3" /><text
   transform="scale(1,-1)"
   style="font-variant:normal;font-weight:normal;font-size:9px;font-family:'Times New Roman';-inkscape-font-specification:Times-Roman;writing-mode:lr-tb;fill:#000000;fill-opacity:1;fill-rule:nonzero;stroke:none"
   id="text182"
   x="209.67"
   y="-642.37"><tspan
     x="209.67"
     y="-642.37"
     id="tspan180">Y</tspan></text>

<text
   transform="scale(1,-1)"
   style="font-style:normal;font-variant:normal;font-size:9.00000023px;font-family:'Times New Roman';-inkscape-font-specification:'Times New Roman, Normal';writing-mode:lr;fill:#000000;fill-opacity:1;fill-rule:nonzero;stroke:none;font-weight:normal;font-stretch:normal;text-anchor:start;text-align:start;font-variant-ligatures:normal;font-variant-caps:normal;font-variant-numeric:normal;font-feature-settings:normal;"
   id="text186"
   x="219.26022"
   y="-599.21997"><tspan
     sodipodi:role="line"
     id="tspan1135">5</tspan></text>

<path
   inkscape:connector-curvature="0"
   id="path188"
   style="fill:#000000;fill-opacity:1;fill-rule:evenodd;stroke:none;stroke-width:0.1"
   d="m 216.5,601.3 -7.1,-3" /><path
   inkscape:connector-curvature="0"
   id="path190"
   style="fill:none;stroke:#000000;stroke-width:0.69999999;stroke-linecap:square;stroke-linejoin:miter;stroke-miterlimit:3.8599999;stroke-dasharray:none;stroke-opacity:1"
   d="m 216.5,601.3 -7.1,-3" /><path
   inkscape:connector-curvature="0"
   id="path192"
   style="fill:#ffffff;fill-opacity:1;fill-rule:nonzero;stroke:none;stroke-width:0.1"
   d="m 167.00674,503.2 h -2.8 c 0,-1.546 1.254,-2.8 2.8,-2.8 1.546,0 2.8,1.254 2.8,2.8 0,1.546 -1.254,2.8 -2.8,2.8 -1.546,0 -2.8,-1.254 -2.8,-2.8" /><path
   inkscape:connector-curvature="0"
   id="path194"
   style="fill:none;stroke:#000000;stroke-width:0.69999999;stroke-linecap:butt;stroke-linejoin:miter;stroke-miterlimit:3.8599999;stroke-dasharray:none;stroke-opacity:1"
   d="m 164.19174,503.185 c 0,-1.563 1.267,-2.83 2.83,-2.83 1.563,0 2.83,1.267 2.83,2.83 0,1.563 -1.267,2.83 -2.83,2.83 -1.563,0 -2.83,-1.267 -2.83,-2.83" /><path
   inkscape:connector-curvature="0"
   id="path196"
   style="fill:#ffffff;fill-opacity:1;fill-rule:evenodd;stroke:none;stroke-width:0.1"
   d="m 223.2,445.7 -0.7,-0.3 -1.7,-0.7 -1.8,-0.6 -1.8,-0.6 -1.7,-0.3 -0.8,-0.1 -1.9,-0.1 h -1.5 l -1.3,0.2 -2.6,0.6 -1.8,0.6 -1.8,0.7 -1.5,0.6 -1.4,0.8 v -13.8 l 0.2,-1.7 0.5,-1.9 0.3,-1 0.8,-1.8 0.9,-1.5 0.8,-1.3 1.1,-1.4 0.9,-1 1.3,-1.1 1.6,-1.3 0.9,-0.6 0.9,-0.7 1.7,-1.1 1.7,1.1 0.9,0.7 1.7,1.2 1.5,1.3 1.1,1 0.7,1 1.1,1.5 1.3,2.2 0.9,1.8 0.6,2 0.3,1.7 0.1,1.8 v 12.9" /><path
   inkscape:connector-curvature="0"
   id="path198"
   style="fill:#ffffff;fill-opacity:1;fill-rule:evenodd;stroke:none;stroke-width:0.1"
   d="m 213,394.7 v 21.4" /><path
   inkscape:connector-curvature="0"
   id="path200"
   style="fill:none;stroke:#000000;stroke-width:0.69999999;stroke-linecap:butt;stroke-linejoin:miter;stroke-miterlimit:3.8599999;stroke-dasharray:none;stroke-opacity:1"
   d="m 213,394.7 v 21.4" /><path
   inkscape:connector-curvature="0"
   id="path202"
   style="fill:none;stroke:#000000;stroke-width:1.5;stroke-linecap:square;stroke-linejoin:miter;stroke-miterlimit:3.8599999;stroke-dasharray:none;stroke-opacity:1"
   d="m 224.77,446.24 c 0,-12.56 0,-12.56 -0.06,-13.47 -0.06,-0.9 -0.06,-0.9 -0.19,-1.78 -0.12,-0.87 -0.12,-0.87 -0.44,-1.87 -0.31,-1 -0.31,-1 -0.75,-1.88 -0.43,-0.87 -0.43,-0.87 -0.87,-1.66 -0.44,-0.78 -0.44,-0.78 -0.84,-1.4 -0.41,-0.63 -0.41,-0.63 -0.75,-1.06 -0.35,-0.44 -0.35,-0.44 -0.69,-0.94 -0.35,-0.5 -0.35,-0.5 -0.91,-1.03 -0.56,-0.53 -0.56,-0.53 -1.31,-1.16 -0.75,-0.62 -0.75,-0.62 -1.63,-1.25 -0.87,-0.62 -0.87,-0.62 -1.78,-1.28 -0.9,-0.66 -0.9,-0.66 -1.65,-1.09" /><path
   inkscape:connector-curvature="0"
   id="path204"
   style="fill:none;stroke:#000000;stroke-width:1.5;stroke-linecap:square;stroke-linejoin:miter;stroke-miterlimit:3.8599999;stroke-dasharray:none;stroke-opacity:1"
   d="m 200.97,446.24 c 0,-12.56 0,-12.56 0.06,-13.47 0.06,-0.9 0.06,-0.9 0.19,-1.78 0.12,-0.87 0.12,-0.87 0.44,-1.87 0.31,-1 0.31,-1 0.75,-1.88 0.43,-0.87 0.43,-0.87 0.87,-1.66 0.44,-0.78 0.44,-0.78 0.84,-1.4 0.41,-0.63 0.41,-0.63 0.76,-1.06 0.34,-0.44 0.34,-0.44 0.68,-0.94 0.35,-0.5 0.35,-0.5 0.91,-1.03 0.56,-0.53 0.56,-0.53 1.31,-1.16 0.75,-0.62 0.75,-0.62 1.63,-1.25 0.87,-0.62 0.87,-0.62 1.78,-1.28 0.9,-0.66 0.9,-0.66 1.65,-1.09" /><path
   inkscape:connector-curvature="0"
   id="path206"
   style="fill:none;stroke:#000000;stroke-width:1.5;stroke-linecap:round;stroke-linejoin:miter;stroke-miterlimit:3.8599999;stroke-dasharray:none;stroke-opacity:1"
   d="m 224.84,446.43 c -1.43,-0.82 -1.43,-0.82 -2.18,-1.13 -0.75,-0.31 -0.75,-0.31 -1.66,-0.65 -0.91,-0.35 -0.91,-0.35 -1.81,-0.63 -0.91,-0.28 -0.91,-0.28 -1.81,-0.56 -0.91,-0.28 -0.91,-0.28 -1.69,-0.35 -0.78,-0.06 -0.78,-0.06 -1.25,-0.15 -0.47,-0.1 -0.47,-0.1 -1.53,-0.03" /><path
   inkscape:connector-curvature="0"
   id="path208"
   style="fill:none;stroke:#000000;stroke-width:1.5;stroke-linecap:round;stroke-linejoin:miter;stroke-miterlimit:3.8599999;stroke-dasharray:none;stroke-opacity:1"
   d="m 201.04,446.44 c 1.43,-0.81 1.43,-0.81 2.18,-1.13 0.75,-0.31 0.75,-0.31 1.66,-0.65 0.91,-0.35 0.91,-0.35 1.81,-0.63 0.91,-0.28 0.91,-0.28 1.82,-0.56 0.9,-0.28 0.9,-0.28 1.68,-0.34 0.78,-0.07 0.78,-0.07 1.25,-0.16 0.47,-0.09 0.47,-0.09 1.53,-0.03" /><text
   style="font-style:normal;font-variant:normal;font-weight:normal;font-stretch:normal;font-size:9.00000023px;font-family:'Times New Roman';-inkscape-font-specification:'Times New Roman, Normal';font-variant-ligatures:normal;font-variant-caps:normal;font-variant-numeric:normal;font-feature-settings:normal;text-align:start;writing-mode:lr;text-anchor:start;fill:#000000;fill-opacity:1;fill-rule:nonzero;stroke:none;stroke-width:0.99999994;"
   id="text90-6"
   x="371.61469"
   y="-429.29962"
   transform="scale(1,-1)"><tspan
     sodipodi:role="line"
     id="tspan1158">10</tspan></text>

<path
   inkscape:connector-curvature="0"
   id="path92-9"
   style="fill:none;stroke:#000000;stroke-width:0.69999999;stroke-linecap:square;stroke-linejoin:miter;stroke-miterlimit:3.8599999;stroke-dasharray:none;stroke-opacity:1"
   d="m 368.85445,431.37967 -7.09999,-3" /></g></svg>