<?xml version="1.0" encoding="UTF-8" standalone="no"?>
<!-- Created with Inkscape (http://www.inkscape.org/) -->

<svg
   version="1.1"
   id="svg2"
   xml:space="preserve"
   width="816"
   height="1056"
   viewBox="0 0 816 1056"
   sodipodi:docname="figdisplay.svg"
   inkscape:version="1.3.2 (091e20e, 2023-11-25, custom)"
   xmlns:inkscape="http://www.inkscape.org/namespaces/inkscape"
   xmlns:sodipodi="http://sodipodi.sourceforge.net/DTD/sodipodi-0.dtd"
   xmlns="http://www.w3.org/2000/svg"
   xmlns:svg="http://www.w3.org/2000/svg"
   xmlns:rdf="http://www.w3.org/1999/02/22-rdf-syntax-ns#"
   xmlns:cc="http://creativecommons.org/ns#"
   xmlns:dc="http://purl.org/dc/elements/1.1/"><metadata
     id="metadata8"><rdf:RDF><cc:Work
         rdf:about=""><dc:format>image/svg+xml</dc:format><dc:type
           rdf:resource="http://purl.org/dc/dcmitype/StillImage" /><dc:title /></cc:Work></rdf:RDF></metadata><defs
     id="defs6">

















</defs><sodipodi:namedview
     pagecolor="#ffffff"
     bordercolor="#666666"
     borderopacity="1"
     objecttolerance="10"
     gridtolerance="10"
     guidetolerance="10"
     inkscape:pageopacity="0"
     inkscape:pageshadow="2"
     inkscape:window-width="3840"
     inkscape:window-height="2054"
     id="namedview4"
     showgrid="false"
     inkscape:zoom="1.2642212"
     inkscape:cx="-61.698064"
     inkscape:cy="642.68816"
     inkscape:window-x="3829"
     inkscape:window-y="-11"
     inkscape:window-maximized="1"
     inkscape:current-layer="g10"
     inkscape:showpageshadow="2"
     inkscape:pagecheckerboard="0"
     inkscape:deskcolor="#d1d1d1" /><g
     id="g10"
     inkscape:groupmode="layer"
     inkscape:label="ink_ext_XXXXXX"
     transform="matrix(1.3333333,0,0,-1.3333333,0,1056)">










<path
   inkscape:connector-curvature="0"
   id="path174"
   style="fill:#000000;fill-opacity:1;fill-rule:evenodd;stroke:none;stroke-width:0.1"
   d="M 57.277752,480.42475 H 163.07775"
   inkscape:export-filename="path174.pdf"
   inkscape:export-xdpi="300"
   inkscape:export-ydpi="300" />






<flowRoot
   xml:space="preserve"
   id="flowRoot950"
   style="font-style:normal;font-variant:normal;font-weight:normal;font-stretch:normal;font-size:12px;line-height:1.25;font-family:Arial;-inkscape-font-specification:'Arial, Normal';font-variant-ligatures:normal;font-variant-caps:normal;font-variant-numeric:normal;font-feature-settings:normal;text-align:start;letter-spacing:0px;word-spacing:0px;writing-mode:lr-tb;text-anchor:start;fill:#000000;fill-opacity:1;stroke:none"><flowRegion
     id="flowRegion952"><rect
       id="rect954"
       width="63.675564"
       height="26.498528"
       x="350.01785"
       y="639.53809" /></flowRegion><flowPara
     id="flowPara956" /></flowRoot><path
   style="fill:none;stroke:#000000;stroke-width:0.75px;stroke-linecap:butt;stroke-linejoin:miter;stroke-opacity:1"
   d="M 149.26935,566.24544 V 551.06303"
   id="path4711"
   inkscape:connector-curvature="0" /><g
   id="g1071"
   transform="translate(-50.381541,161.70096)"><path
     d="m 211.8,372.81 v 0.08 c 0,0.668 0.542,1.21 1.21,1.21 h -0.02 c 0.668,0 1.21,-0.542 1.21,-1.21 v -0.08 c 0,-0.668 -0.542,-1.21 -1.21,-1.21 h 0.02 c -0.668,0 -1.21,0.542 -1.21,1.21"
     style="fill:#000000;fill-opacity:1;fill-rule:evenodd;stroke:none;stroke-width:0.1"
     id="path120"
     inkscape:connector-curvature="0" /><path
     d="m 211.8,372.81 v 0.08 c 0,0.668 0.542,1.21 1.21,1.21 h -0.02 c 0.668,0 1.21,-0.542 1.21,-1.21 v -0.08 c 0,-0.668 -0.542,-1.21 -1.21,-1.21 h 0.02 c -0.668,0 -1.21,0.542 -1.21,1.21 z"
     style="fill:none;stroke:#000000;stroke-width:0.69999999;stroke-linecap:butt;stroke-linejoin:miter;stroke-miterlimit:3.8599999;stroke-dasharray:none;stroke-opacity:1"
     id="path122"
     inkscape:connector-curvature="0" /></g><path
   inkscape:connector-curvature="0"
   id="path22"
   style="fill:none;stroke:#000000;stroke-width:1.29999995;stroke-linecap:butt;stroke-linejoin:miter;stroke-miterlimit:3.8599999;stroke-dasharray:none;stroke-opacity:1"
   d="m 171.26934,572.76831 v 85 h -42.5 v -85 z" /><path
   inkscape:connector-curvature="0"
   id="path24"
   style="fill:none;stroke:#000000;stroke-width:0.69999999;stroke-linecap:square;stroke-linejoin:miter;stroke-miterlimit:3.8599999;stroke-dasharray:none;stroke-opacity:1"
   d="m 166.16934,572.76831 -3.5,7.1 -3.6,-7.1" /><text
   transform="scale(1,-1)"
   id="text4648-7"
   y="-665.08813"
   x="135.33061"
   style="font-style:normal;font-variant:normal;font-weight:normal;font-stretch:normal;font-size:14px;line-height:1.25;font-family:'Times New Roman';-inkscape-font-specification:'Times New Roman, Normal';font-variant-ligatures:normal;font-variant-caps:normal;font-variant-numeric:normal;font-feature-settings:normal;text-align:start;letter-spacing:0px;word-spacing:0px;writing-mode:lr-tb;text-anchor:start;fill:#000000;fill-opacity:1;stroke:none;stroke-width:0.75"
   xml:space="preserve"><tspan
     style="font-style:normal;font-variant:normal;font-weight:normal;font-stretch:normal;font-size:9px;font-family:'Times New Roman';-inkscape-font-specification:'Times New Roman, Normal';font-variant-ligatures:normal;font-variant-caps:normal;font-variant-numeric:normal;font-feature-settings:normal;text-align:start;writing-mode:lr-tb;text-anchor:start;stroke-width:0.75"
     y="-665.08813"
     x="135.33061"
     id="tspan4646-8"
     sodipodi:role="line">Counter</tspan></text>
<path
   inkscape:connector-curvature="0"
   id="path170"
   style="fill:none;stroke:#000000;stroke-width:1.10000002;stroke-linecap:butt;stroke-linejoin:miter;stroke-miterlimit:3.8599999;stroke-dasharray:none;stroke-opacity:1"
   d="m 223.79655,613.49939 4.9,1 -4.9,1.1 v -1.1 z" /><path
   inkscape:connector-curvature="0"
   id="path172"
   style="fill:#000000;fill-opacity:1;fill-rule:evenodd;stroke:none;stroke-width:0.1"
   d="m 223.79655,613.49939 4.9,1 -4.9,1.1 v -1.1" /><text
   transform="scale(1,-1)"
   style="font-style:normal;font-variant:normal;font-weight:normal;font-stretch:normal;font-size:9px;font-family:'Times New Roman';-inkscape-font-specification:'Times New Roman, Normal';font-variant-ligatures:normal;font-variant-caps:normal;font-variant-numeric:normal;font-feature-settings:normal;text-align:start;writing-mode:lr-tb;text-anchor:start;fill:#000000;fill-opacity:1;fill-rule:nonzero;stroke:none"
   id="text186"
   x="185.28113"
   y="-620.10156"><tspan
     y="-620.10156"
     x="185.28113"
     sodipodi:role="line"
     id="tspan4696">3</tspan></text>
<path
   style="fill:none;stroke:#000000;stroke-width:0.75;stroke-linecap:butt;stroke-linejoin:miter;stroke-miterlimit:4;stroke-dasharray:none;stroke-opacity:1"
   d="m 183.01338,611.56295 5.87289,5.87289"
   id="path4694"
   inkscape:connector-curvature="0" /><path
   style="fill:none;stroke:#000000;stroke-width:0.75px;stroke-linecap:butt;stroke-linejoin:miter;stroke-opacity:1"
   d="m 162.61846,572.11831 v -37.6663"
   id="path4711-6"
   inkscape:connector-curvature="0" /><path
   inkscape:connector-curvature="0"
   id="path192"
   style="fill:#ffffff;fill-opacity:1;fill-rule:nonzero;stroke:none;stroke-width:0.09999999"
   d="m 135.76934,626.65367 h -2.8 c 0,-1.546 1.254,-2.8 2.8,-2.8 1.546,0 2.8,1.254 2.8,2.8 0,1.546 -1.254,2.8 -2.8,2.8 -1.546,0 -2.8,-1.254 -2.8,-2.8" /><path
   inkscape:connector-curvature="0"
   id="path194"
   style="fill:none;stroke:#000000;stroke-width:0.69999999;stroke-linecap:butt;stroke-linejoin:miter;stroke-miterlimit:3.8599999;stroke-dasharray:none;stroke-opacity:1"
   d="m 146.43934,568.93831 c 0,-1.563 1.267,-2.83 2.83,-2.83 1.563,0 2.83,1.267 2.83,2.83 0,1.563 -1.267,2.83 -2.83,2.83 -1.563,0 -2.83,-1.267 -2.83,-2.83" /><path
   style="fill:none;stroke:#000000;stroke-width:0.75px;stroke-linecap:butt;stroke-linejoin:miter;stroke-opacity:1"
   d="M 149.26935,551.06303 H 108.16124"
   id="path5491"
   inkscape:connector-curvature="0" /><text
   xml:space="preserve"
   style="font-style:normal;font-variant:normal;font-weight:normal;font-stretch:normal;font-size:9px;line-height:1.25;font-family:'Times New Roman';-inkscape-font-specification:'Times New Roman, Normal';font-variant-ligatures:normal;font-variant-caps:normal;font-variant-numeric:normal;font-feature-settings:normal;text-align:start;letter-spacing:0px;word-spacing:0px;writing-mode:lr-tb;text-anchor:start;fill:#000000;fill-opacity:1;stroke:none;stroke-width:0.75"
   x="79.300201"
   y="-549.05341"
   id="text5497"
   transform="scale(1,-1)"><tspan
     sodipodi:role="line"
     id="tspan5511"
     x="79.300201"
     y="-549.05341">Resetn</tspan></text>
<path
   style="fill:none;stroke:#000000;stroke-width:0.75000006px;stroke-linecap:butt;stroke-linejoin:miter;stroke-opacity:1"
   d="M 241.36796,534.55095 H 108.29146"
   id="path5491-6"
   inkscape:connector-curvature="0" /><text
   xml:space="preserve"
   style="font-style:normal;font-variant:normal;font-weight:normal;font-stretch:normal;font-size:9px;line-height:1.25;font-family:'Times New Roman';-inkscape-font-specification:'Times New Roman, Normal';font-variant-ligatures:normal;font-variant-caps:normal;font-variant-numeric:normal;font-feature-settings:normal;text-align:start;letter-spacing:0px;word-spacing:0px;writing-mode:lr-tb;text-anchor:start;fill:#000000;fill-opacity:1;stroke:none;stroke-width:0.75"
   x="82.19619"
   y="-532.54132"
   id="text5497-8"
   transform="scale(1,-1)"><tspan
     style="stroke-width:0.75"
     sodipodi:role="line"
     id="tspan5511-6"
     x="82.19619"
     y="-532.54132">Clock</tspan></text>
<text
   xml:space="preserve"
   style="font-style:normal;font-variant:normal;font-weight:normal;font-stretch:normal;font-size:9px;line-height:1.25;font-family:'Times New Roman';-inkscape-font-specification:'Times New Roman, Normal';font-variant-ligatures:normal;font-variant-caps:normal;font-variant-numeric:normal;font-feature-settings:normal;text-align:start;letter-spacing:0px;word-spacing:0px;writing-mode:lr-tb;text-anchor:start;fill:#000000;fill-opacity:1;stroke:none;stroke-width:0.75"
   x="159.55946"
   y="-612.25067"
   id="text5497-8-4-5"
   transform="scale(1,-1)"><tspan
     style="stroke-width:0.75"
     sodipodi:role="line"
     id="tspan5511-6-2-2"
     x="159.55946"
     y="-612.25067">Q</tspan></text>
<path
   inkscape:connector-curvature="0"
   id="path22-1"
   style="fill:none;stroke:#000000;stroke-width:1.29999995;stroke-linecap:butt;stroke-linejoin:miter;stroke-miterlimit:3.8599999;stroke-dasharray:none;stroke-opacity:1"
   d="m 296.62624,572.22918 v 85.00001 h -66.82329 v -85.00001 z" /><path
   inkscape:connector-curvature="0"
   id="path24-3"
   style="fill:none;stroke:#000000;stroke-width:0.69999999;stroke-linecap:square;stroke-linejoin:miter;stroke-miterlimit:3.8599999;stroke-dasharray:none;stroke-opacity:1"
   d="m 245.02625,572.22918 -3.50001,7.10001 -3.6,-7.10001" /><text
   id="text4648-7-0"
   y="-664.54895"
   x="247.67114"
   style="font-style:normal;font-variant:normal;font-weight:normal;font-stretch:normal;font-size:14px;line-height:1.25;font-family:'Times New Roman';-inkscape-font-specification:'Times New Roman, Normal';font-variant-ligatures:normal;font-variant-caps:normal;font-variant-numeric:normal;font-feature-settings:normal;text-align:start;letter-spacing:0px;word-spacing:0px;writing-mode:lr-tb;text-anchor:start;fill:#000000;fill-opacity:1;stroke:none;stroke-width:0.75"
   xml:space="preserve"
   transform="scale(1,-1)"><tspan
     style="font-style:normal;font-variant:normal;font-weight:normal;font-stretch:normal;font-size:9px;font-family:'Times New Roman';-inkscape-font-specification:'Times New Roman, Normal';font-variant-ligatures:normal;font-variant-caps:normal;font-variant-numeric:normal;font-feature-settings:normal;text-align:start;writing-mode:lr-tb;text-anchor:start;stroke-width:0.75"
     y="-664.54895"
     x="247.67114"
     id="tspan4646-8-0"
     sodipodi:role="line">Memory</tspan></text>
<path
   style="fill:none;stroke:#000000;stroke-width:0.75000006px;stroke-linecap:butt;stroke-linejoin:miter;stroke-opacity:1"
   d="M 241.47536,571.57919 V 534.20951"
   id="path4711-6-4"
   inkscape:connector-curvature="0" /><path
   inkscape:connector-curvature="0"
   id="path192-8"
   style="fill:#ffffff;fill-opacity:1;fill-rule:nonzero;stroke:none;stroke-width:0.09999999"
   d="m 261.12624,626.11455 h -2.8 c 0,-1.546 1.254,-2.8 2.8,-2.8 1.546,0 2.8,1.254 2.8,2.8 0,1.546 -1.254,2.8 -2.8,2.8 -1.546,0 -2.8,-1.254 -2.8,-2.8" /><text
   xml:space="preserve"
   style="font-style:normal;font-variant:normal;font-weight:normal;font-stretch:normal;font-size:9px;line-height:1.25;font-family:'Times New Roman';-inkscape-font-specification:'Times New Roman, Normal';font-variant-ligatures:normal;font-variant-caps:normal;font-variant-numeric:normal;font-feature-settings:normal;text-align:start;letter-spacing:0px;word-spacing:0px;writing-mode:lr-tb;text-anchor:start;fill:#000000;fill-opacity:1;stroke:none;stroke-width:0.75"
   x="277.71301"
   y="-611.35419"
   id="text5497-8-4-5-4"
   transform="scale(1,-1)"><tspan
     sodipodi:role="line"
     id="tspan1047"
     x="277.71301"
     y="-611.35419">data</tspan></text>
<text
   xml:space="preserve"
   style="font-style:normal;font-variant:normal;font-weight:normal;font-stretch:normal;font-size:9px;line-height:1.25;font-family:'Times New Roman';-inkscape-font-specification:'Times New Roman, Normal';font-variant-ligatures:normal;font-variant-caps:normal;font-variant-numeric:normal;font-feature-settings:normal;text-align:start;letter-spacing:0px;word-spacing:0px;writing-mode:lr-tb;text-anchor:start;fill:#000000;fill-opacity:1;stroke:none;stroke-width:0.75"
   x="233.28194"
   y="-611.35419"
   id="text5497-8-4-5-4-3"
   transform="scale(1,-1)"><tspan
     sodipodi:role="line"
     id="tspan1067"
     x="233.28194"
     y="-611.35419">addr</tspan></text>
<path
   style="fill:none;stroke:#000000;stroke-width:1;stroke-linecap:butt;stroke-linejoin:miter;stroke-miterlimit:4;stroke-dasharray:none;stroke-opacity:1"
   d="M 228.69655,614.49939 H 171.15281"
   id="path1073"
   inkscape:connector-curvature="0" /><path
   inkscape:connector-curvature="0"
   id="path170-3"
   style="fill:none;stroke:#000000;stroke-width:1.10000002;stroke-linecap:butt;stroke-linejoin:miter;stroke-miterlimit:3.8599999;stroke-dasharray:none;stroke-opacity:1"
   d="m 335.93315,613.71451 4.9,1 -4.9,1.1 v -1.1 z" /><path
   inkscape:connector-curvature="0"
   id="path172-2"
   style="fill:#000000;fill-opacity:1;fill-rule:evenodd;stroke:none;stroke-width:0.09999999"
   d="m 335.93315,613.71451 4.9,1 -4.9,1.1 v -1.1" /><text
   style="font-style:normal;font-variant:normal;font-weight:normal;font-stretch:normal;font-size:9px;font-family:'Times New Roman';-inkscape-font-specification:'Times New Roman, Normal';font-variant-ligatures:normal;font-variant-caps:normal;font-variant-numeric:normal;font-feature-settings:normal;text-align:start;writing-mode:lr-tb;text-anchor:start;fill:#000000;fill-opacity:1;fill-rule:nonzero;stroke:none;stroke-width:1"
   id="text186-5"
   x="315.41769"
   y="-620.31665"
   transform="scale(1,-1)"><tspan
     style="stroke-width:1"
     y="-620.31665"
     x="315.41769"
     sodipodi:role="line"
     id="tspan4696-4">8</tspan></text>
<path
   style="fill:none;stroke:#000000;stroke-width:0.75;stroke-linecap:butt;stroke-linejoin:miter;stroke-miterlimit:4;stroke-dasharray:none;stroke-opacity:1"
   d="m 313.14998,611.77807 5.87289,5.87289"
   id="path4694-1"
   inkscape:connector-curvature="0" /><path
   style="fill:none;stroke:#000000;stroke-width:0.99999994;stroke-linecap:butt;stroke-linejoin:miter;stroke-miterlimit:4;stroke-dasharray:none;stroke-opacity:1"
   d="M 340.83315,614.71451 H 296.78941"
   id="path1073-6"
   inkscape:connector-curvature="0" /><path
   style="fill:none;stroke:#000000;stroke-width:0.75000006px;stroke-linecap:butt;stroke-linejoin:miter;stroke-opacity:1"
   d="m 207.84998,615.02533 v 19.33517 h -5.86501"
   id="path4711-7"
   inkscape:connector-curvature="0" /><text
   style="font-style:normal;font-variant:normal;font-weight:normal;font-stretch:normal;font-size:9px;font-family:'Times New Roman';-inkscape-font-specification:'Times New Roman, Normal';font-variant-ligatures:normal;font-variant-caps:normal;font-variant-numeric:normal;font-feature-settings:normal;text-align:start;writing-mode:lr-tb;text-anchor:start;fill:#000000;fill-opacity:1;fill-rule:nonzero;stroke:none;stroke-width:1"
   id="text186-9"
   x="191.20589"
   y="-631.78986"
   transform="scale(1,-1)"><tspan
     style="stroke-width:1"
     y="-631.78986"
     x="191.20589"
     sodipodi:role="line"
     id="tspan4696-0">00</tspan></text>
<text
   style="font-style:normal;font-variant:normal;font-weight:normal;font-stretch:normal;font-size:9px;font-family:'Times New Roman';-inkscape-font-specification:'Times New Roman, Normal';font-variant-ligatures:normal;font-variant-caps:normal;font-variant-numeric:normal;font-feature-settings:normal;text-align:start;writing-mode:lr-tb;text-anchor:start;fill:#000000;fill-opacity:1;fill-rule:nonzero;stroke:none;stroke-width:1"
   id="text186-7"
   x="214.01076"
   y="-620.29974"
   transform="scale(1,-1)"><tspan
     style="stroke-width:1"
     y="-620.29974"
     x="214.01076"
     sodipodi:role="line"
     id="tspan4696-5">5</tspan></text>
<path
   style="fill:none;stroke:#000000;stroke-width:0.75;stroke-linecap:butt;stroke-linejoin:miter;stroke-miterlimit:4;stroke-dasharray:none;stroke-opacity:1"
   d="m 211.74301,611.76118 5.87289,5.87289"
   id="path4694-3"
   inkscape:connector-curvature="0" /><path
   inkscape:connector-curvature="0"
   id="path22-1-2"
   style="fill:none;stroke:#000000;stroke-width:1.29999995;stroke-linecap:butt;stroke-linejoin:miter;stroke-miterlimit:3.8599999;stroke-dasharray:none;stroke-opacity:1"
   d="m 396.04078,580.99133 v 68.98224 h -54.0684 v -68.98224 z" /><text
   id="text4648-7-0-5"
   y="-657.29333"
   x="352.09644"
   style="font-style:normal;font-variant:normal;font-weight:normal;font-stretch:normal;font-size:14px;line-height:1.25;font-family:'Times New Roman';-inkscape-font-specification:'Times New Roman, Normal';font-variant-ligatures:normal;font-variant-caps:normal;font-variant-numeric:normal;font-feature-settings:normal;text-align:start;letter-spacing:0px;word-spacing:0px;writing-mode:lr-tb;text-anchor:start;fill:#000000;fill-opacity:1;stroke:none;stroke-width:0.75"
   xml:space="preserve"
   transform="scale(1,-1)"><tspan
     style="font-style:normal;font-variant:normal;font-weight:normal;font-stretch:normal;font-size:9px;font-family:'Times New Roman';-inkscape-font-specification:'Times New Roman, Normal';font-variant-ligatures:normal;font-variant-caps:normal;font-variant-numeric:normal;font-feature-settings:normal;text-align:start;writing-mode:lr-tb;text-anchor:start;stroke-width:0.75"
     y="-657.29333"
     x="352.09644"
     id="tspan4646-8-0-8"
     sodipodi:role="line">Decoders</tspan></text>
<text
   xml:space="preserve"
   style="font-style:normal;font-variant:normal;font-weight:normal;font-stretch:normal;font-size:9px;line-height:1.25;font-family:'Times New Roman';-inkscape-font-specification:'Times New Roman, Normal';font-variant-ligatures:normal;font-variant-caps:normal;font-variant-numeric:normal;font-feature-settings:normal;text-align:start;letter-spacing:0px;word-spacing:0px;writing-mode:lr-tb;text-anchor:start;fill:#000000;fill-opacity:1;stroke:none;stroke-width:0.75"
   x="376.69592"
   y="-613.47412"
   id="text5497-8-4-5-4-0"
   transform="scale(1,-1)"><tspan
     style="stroke-width:0.75"
     sodipodi:role="line"
     id="tspan1047-9"
     x="376.69592"
     y="-613.47412">seg7</tspan></text>
<text
   xml:space="preserve"
   style="font-style:normal;font-variant:normal;font-weight:normal;font-stretch:normal;font-size:9px;line-height:1.25;font-family:'Times New Roman';-inkscape-font-specification:'Times New Roman, Normal';font-variant-ligatures:normal;font-variant-caps:normal;font-variant-numeric:normal;font-feature-settings:normal;text-align:start;letter-spacing:0px;word-spacing:0px;writing-mode:lr-tb;text-anchor:start;fill:#000000;fill-opacity:1;stroke:none;stroke-width:0.75"
   x="345.45139"
   y="-612.41943"
   id="text5497-8-4-5-4-3-3"
   transform="scale(1,-1)"><tspan
     style="stroke-width:0.75"
     sodipodi:role="line"
     id="tspan1067-0"
     x="345.45139"
     y="-612.41943">char</tspan></text>
<path
   inkscape:connector-curvature="0"
   id="path170-3-3"
   style="fill:none;stroke:#000000;stroke-width:1.10000002;stroke-linecap:butt;stroke-linejoin:miter;stroke-miterlimit:3.8599999;stroke-dasharray:none;stroke-opacity:1"
   d="m 432.51511,613.86637 4.9,1.00001 -4.9,1.1 v -1.1 z" /><path
   inkscape:connector-curvature="0"
   id="path172-2-7"
   style="fill:#000000;fill-opacity:1;fill-rule:evenodd;stroke:none;stroke-width:0.09999999"
   d="m 432.51511,613.86637 4.9,1.00001 -4.9,1.1 v -1.1" /><text
   style="font-style:normal;font-variant:normal;font-weight:normal;font-stretch:normal;font-size:9px;font-family:'Times New Roman';-inkscape-font-specification:'Times New Roman, Normal';font-variant-ligatures:normal;font-variant-caps:normal;font-variant-numeric:normal;font-feature-settings:normal;text-align:start;writing-mode:lr-tb;text-anchor:start;fill:#000000;fill-opacity:1;fill-rule:nonzero;stroke:none;stroke-width:1"
   id="text186-5-6"
   x="414.99966"
   y="-620.46851"
   transform="scale(1,-1)"><tspan
     style="stroke-width:1"
     y="-620.46851"
     x="414.99966"
     sodipodi:role="line"
     id="tspan4696-4-2">7</tspan></text>
<path
   style="fill:none;stroke:#000000;stroke-width:0.75;stroke-linecap:butt;stroke-linejoin:miter;stroke-miterlimit:4;stroke-dasharray:none;stroke-opacity:1"
   d="m 412.73194,611.92993 5.87289,5.8729"
   id="path4694-1-8"
   inkscape:connector-curvature="0" /><path
   style="fill:none;stroke:#000000;stroke-width:0.99999988;stroke-linecap:butt;stroke-linejoin:miter;stroke-miterlimit:4;stroke-dasharray:none;stroke-opacity:1"
   d="M 437.41511,614.86638 H 396.37137"
   id="path1073-6-9"
   inkscape:connector-curvature="0" /><g
   id="g1388"
   transform="matrix(0.76370401,0,0,0.76370401,72.530977,356.81202)"
   style="stroke-width:1.30940783"><path
   inkscape:connector-curvature="0"
   id="path98"
   style="fill:#e6e6e6;fill-opacity:1;fill-rule:nonzero;stroke:none;stroke-width:1.30940771"
   d="m 480.90278,298.16961 h 50.22 v 78.84 h -50.22 z" /><path
   inkscape:connector-curvature="0"
   id="path100"
   style="fill:#000000;fill-opacity:1;fill-rule:nonzero;stroke:none;stroke-width:1.30940771"
   d="m 480.90278,376.22961 h 51 v 1.5 h -51 z" /><path
   inkscape:connector-curvature="0"
   id="path102"
   style="fill:#000000;fill-opacity:1;fill-rule:nonzero;stroke:none;stroke-width:1.30940771"
   d="m 530.40278,297.38961 h 1.5 v 79.62 h -1.5 z" /><path
   inkscape:connector-curvature="0"
   id="path104"
   style="fill:#000000;fill-opacity:1;fill-rule:nonzero;stroke:none;stroke-width:1.30940771"
   d="m 480.18278,297.38961 h 50.94 v 1.5 h -50.94 z" /><path
   inkscape:connector-curvature="0"
   id="path106"
   style="fill:#000000;fill-opacity:1;fill-rule:nonzero;stroke:none;stroke-width:1.30940771"
   d="m 480.18278,298.16961 h 1.5 v 79.56 h -1.5 z" /><g
   transform="translate(498.42279,311.96961)"
   id="g108"
   style="stroke-width:1.30940783"><path
     inkscape:connector-curvature="0"
     id="path110"
     style="fill:#ff0000;fill-opacity:1;fill-rule:nonzero;stroke:none;stroke-width:1.30940783"
     d="M 0,0 -0.12,0.6 -0.42,1.08 -0.9,1.38 -1.5,1.5 -2.1,1.38 -2.58,1.08 -2.88,0.6 -3,0 l 0.12,-0.6 0.3,-0.48 0.48,-0.3 0.6,-0.12 0.6,0.12 0.48,0.3 0.3,0.48 L 0,0" /></g><g
   transform="translate(516.42279,311.96961)"
   id="g112"
   style="stroke-width:1.30940783"><path
     inkscape:connector-curvature="0"
     id="path114"
     style="fill:#ff0000;fill-opacity:1;fill-rule:nonzero;stroke:none;stroke-width:1.30940783"
     d="M 0,0 -0.12,0.6 -0.42,1.08 -0.9,1.38 -1.5,1.5 -2.1,1.38 -2.58,1.08 -2.88,0.6 -3,0 l 0.12,-0.6 0.3,-0.48 0.48,-0.3 0.6,-0.12 0.6,0.12 0.48,0.3 0.3,0.48 L 0,0" /></g><path
   inkscape:connector-curvature="0"
   id="path116"
   style="fill:#ff0000;fill-opacity:1;fill-rule:nonzero;stroke:none;stroke-width:1.30940771"
   d="m 496.92278,310.46961 h 18 v 3 h -18 z" /><g
   transform="translate(520.50279,315.74961)"
   id="g118"
   style="stroke-width:1.30940783"><path
     inkscape:connector-curvature="0"
     id="path120-9"
     style="fill:#ff0000;fill-opacity:1;fill-rule:nonzero;stroke:none;stroke-width:1.30940783"
     d="M 0,0 -0.12,0.6 -0.42,1.08 -0.9,1.38 -1.5,1.5 -2.1,1.38 -2.58,1.08 -2.88,0.6 -3,0 l 0.12,-0.6 0.3,-0.48 0.48,-0.3 0.6,-0.12 0.6,0.12 0.48,0.3 0.3,0.48 L 0,0" /></g><g
   transform="translate(520.50279,333.74961)"
   id="g122"
   style="stroke-width:1.30940783"><path
     inkscape:connector-curvature="0"
     id="path124"
     style="fill:#ff0000;fill-opacity:1;fill-rule:nonzero;stroke:none;stroke-width:1.30940783"
     d="M 0,0 -0.12,0.6 -0.42,1.08 -0.9,1.38 -1.5,1.5 -2.1,1.38 -2.58,1.08 -2.88,0.6 -3,0 l 0.12,-0.6 0.3,-0.48 0.48,-0.3 0.6,-0.12 0.6,0.12 0.48,0.3 0.3,0.48 L 0,0" /></g><path
   inkscape:connector-curvature="0"
   id="path126"
   style="fill:#ff0000;fill-opacity:1;fill-rule:nonzero;stroke:none;stroke-width:1.30940771"
   d="m 517.50278,315.74961 h 3 v 18 h -3 z" /><g
   transform="translate(494.70279,315.74961)"
   id="g128"
   style="stroke-width:1.30940783"><path
     inkscape:connector-curvature="0"
     id="path130"
     style="fill:#ff0000;fill-opacity:1;fill-rule:nonzero;stroke:none;stroke-width:1.30940783"
     d="M 0,0 -0.12,0.6 -0.42,1.08 -0.9,1.38 -1.5,1.5 -2.1,1.38 -2.58,1.08 -2.88,0.6 -3,0 l 0.12,-0.6 0.3,-0.48 0.48,-0.3 0.6,-0.12 0.6,0.12 0.48,0.3 0.3,0.48 L 0,0" /></g><g
   transform="translate(494.70279,333.74961)"
   id="g132"
   style="stroke-width:1.30940783"><path
     inkscape:connector-curvature="0"
     id="path134"
     style="fill:#ff0000;fill-opacity:1;fill-rule:nonzero;stroke:none;stroke-width:1.30940783"
     d="M 0,0 -0.12,0.6 -0.42,1.08 -0.9,1.38 -1.5,1.5 -2.1,1.38 -2.58,1.08 -2.88,0.6 -3,0 l 0.12,-0.6 0.3,-0.48 0.48,-0.3 0.6,-0.12 0.6,0.12 0.48,0.3 0.3,0.48 L 0,0" /></g><path
   inkscape:connector-curvature="0"
   id="path136"
   style="fill:#ff0000;fill-opacity:1;fill-rule:nonzero;stroke:none;stroke-width:1.30940771"
   d="m 491.70278,315.74961 h 3 v 18 h -3 z" /><g
   transform="translate(498.54279,362.96961)"
   id="g138"
   style="stroke-width:1.30940783"><path
     inkscape:connector-curvature="0"
     id="path140"
     style="fill:#ff0000;fill-opacity:1;fill-rule:nonzero;stroke:none;stroke-width:1.30940783"
     d="M 0,0 -0.12,0.6 -0.42,1.08 -0.9,1.38 -1.5,1.5 -2.1,1.38 -2.58,1.08 -2.88,0.6 -3,0 l 0.12,-0.6 0.3,-0.48 0.48,-0.3 0.6,-0.12 0.6,0.12 0.48,0.3 0.3,0.48 L 0,0" /></g><g
   transform="translate(516.54279,362.96961)"
   id="g142"
   style="stroke-width:1.30940783"><path
     inkscape:connector-curvature="0"
     id="path144"
     style="fill:#ff0000;fill-opacity:1;fill-rule:nonzero;stroke:none;stroke-width:1.30940783"
     d="M 0,0 -0.12,0.6 -0.42,1.08 -0.9,1.38 -1.5,1.5 -2.1,1.38 -2.58,1.08 -2.88,0.6 -3,0 l 0.12,-0.6 0.3,-0.48 0.48,-0.3 0.6,-0.12 0.6,0.12 0.48,0.3 0.3,0.48 L 0,0" /></g><path
   inkscape:connector-curvature="0"
   id="path146"
   style="fill:#ff0000;fill-opacity:1;fill-rule:nonzero;stroke:none;stroke-width:1.30940771"
   d="m 497.04278,361.46961 h 18 v 3 h -18 z" /><g
   transform="translate(498.54279,337.52961)"
   id="g148"
   style="stroke-width:1.30940783"><path
     inkscape:connector-curvature="0"
     id="path150"
     style="fill:#ff0000;fill-opacity:1;fill-rule:nonzero;stroke:none;stroke-width:1.30940783"
     d="M 0,0 -0.12,0.6 -0.42,1.08 -0.9,1.38 -1.5,1.5 -2.1,1.38 -2.58,1.08 -2.88,0.6 -3,0 l 0.12,-0.6 0.3,-0.48 0.48,-0.3 0.6,-0.12 0.6,0.12 0.48,0.3 0.3,0.48 L 0,0" /></g><g
   transform="translate(516.54279,337.52961)"
   id="g152"
   style="stroke-width:1.30940783"><path
     inkscape:connector-curvature="0"
     id="path154"
     style="fill:#ff0000;fill-opacity:1;fill-rule:nonzero;stroke:none;stroke-width:1.30940783"
     d="M 0,0 -0.12,0.6 -0.42,1.08 -0.9,1.38 -1.5,1.5 -2.1,1.38 -2.58,1.08 -2.88,0.6 -3,0 l 0.12,-0.6 0.3,-0.48 0.48,-0.3 0.6,-0.12 0.6,0.12 0.48,0.3 0.3,0.48 L 0,0" /></g><path
   inkscape:connector-curvature="0"
   id="path156"
   style="fill:#ff0000;fill-opacity:1;fill-rule:nonzero;stroke:none;stroke-width:1.30940771"
   d="m 497.04278,336.02961 h 18 v 3 h -18 z" /><g
   transform="translate(520.56279,341.30961)"
   id="g158"
   style="stroke-width:1.30940783"><path
     inkscape:connector-curvature="0"
     id="path160"
     style="fill:#ff0000;fill-opacity:1;fill-rule:nonzero;stroke:none;stroke-width:1.30940783"
     d="M 0,0 -0.12,0.6 -0.42,1.08 -0.9,1.38 -1.5,1.5 -2.1,1.38 -2.58,1.08 -2.88,0.6 -3,0 l 0.12,-0.6 0.3,-0.48 0.48,-0.3 0.6,-0.12 0.6,0.12 0.48,0.3 0.3,0.48 L 0,0" /></g><g
   transform="translate(520.56279,359.30961)"
   id="g162"
   style="stroke-width:1.30940783"><path
     inkscape:connector-curvature="0"
     id="path164"
     style="fill:#ff0000;fill-opacity:1;fill-rule:nonzero;stroke:none;stroke-width:1.30940783"
     d="M 0,0 -0.12,0.6 -0.42,1.08 -0.9,1.38 -1.5,1.5 -2.1,1.38 -2.58,1.08 -2.88,0.6 -3,0 l 0.12,-0.6 0.3,-0.48 0.48,-0.3 0.6,-0.12 0.6,0.12 0.48,0.3 0.3,0.48 L 0,0" /></g><path
   inkscape:connector-curvature="0"
   id="path166"
   style="fill:#ff0000;fill-opacity:1;fill-rule:nonzero;stroke:none;stroke-width:1.30940771"
   d="m 517.56278,341.30961 h 3 v 18 h -3 z" /><g
   transform="translate(494.76279,341.30961)"
   id="g168"
   style="stroke-width:1.30940783"><path
     inkscape:connector-curvature="0"
     id="path170-7"
     style="fill:#ff0000;fill-opacity:1;fill-rule:nonzero;stroke:none;stroke-width:1.30940783"
     d="M 0,0 -0.12,0.6 -0.42,1.08 -0.9,1.38 -1.5,1.5 -2.1,1.38 -2.58,1.08 -2.88,0.6 -3,0 l 0.12,-0.6 0.3,-0.48 0.48,-0.3 0.6,-0.12 0.6,0.12 0.48,0.3 0.3,0.48 L 0,0" /></g><g
   transform="translate(494.76279,359.30961)"
   id="g172"
   style="stroke-width:1.30940783"><path
     inkscape:connector-curvature="0"
     id="path174-4"
     style="fill:#ff0000;fill-opacity:1;fill-rule:nonzero;stroke:none;stroke-width:1.30940783"
     d="M 0,0 -0.12,0.6 -0.42,1.08 -0.9,1.38 -1.5,1.5 -2.1,1.38 -2.58,1.08 -2.88,0.6 -3,0 l 0.12,-0.6 0.3,-0.48 0.48,-0.3 0.6,-0.12 0.6,0.12 0.48,0.3 0.3,0.48 L 0,0" /></g><path
   inkscape:connector-curvature="0"
   id="path176"
   style="fill:#ff0000;fill-opacity:1;fill-rule:nonzero;stroke:none;stroke-width:1.30940771"
   d="m 491.76278,341.30961 h 3 v 18 h -3 z" /><text
   transform="scale(1,-1)"
   id="text192"
   style="font-variant:normal;font-weight:normal;font-stretch:normal;font-size:9px;font-family:'Times New Roman';-inkscape-font-specification:TimesNewRomanPSMT;writing-mode:lr-tb;fill:#000000;fill-opacity:1;fill-rule:nonzero;stroke:none;stroke-width:1.30941"
   x="503.28278"
   y="-367.04959"><tspan
     id="tspan178"
     y="-367.04959"
     x="503.28278"
     style="stroke-width:1.30941">0</tspan><tspan
     id="tspan180"
     y="-346.94992"
     x="522.72278"
     style="stroke-width:1.30941">1</tspan><tspan
     id="tspan182"
     y="-321.38992"
     x="522.72278"
     style="stroke-width:1.30941">2</tspan><tspan
     id="tspan184"
     y="-302.4296"
     x="503.16309"
     style="stroke-width:1.30941">3</tspan><tspan
     id="tspan186"
     y="-321.38992"
     x="484.8031"
     style="stroke-width:1.30941">4</tspan><tspan
     id="tspan188"
     y="-346.94992"
     x="484.8031"
     style="stroke-width:1.30941">5</tspan><tspan
     id="tspan190"
     y="-341.43021"
     x="503.16309"
     style="stroke-width:1.30941">6</tspan></text>

</g><flowRoot
   xml:space="preserve"
   id="flowRoot1571"
   style="font-style:normal;font-variant:normal;font-weight:normal;font-stretch:normal;font-size:12px;line-height:1.25;font-family:'Times New Roman';-inkscape-font-specification:'Times New Roman, Normal';font-variant-ligatures:normal;font-variant-caps:normal;font-variant-numeric:normal;font-feature-settings:normal;text-align:start;letter-spacing:0px;word-spacing:0px;writing-mode:lr-tb;text-anchor:start;fill:#000000;fill-opacity:1;stroke:none"><flowRegion
     id="flowRegion1573"><rect
       id="rect1575"
       width="80.682083"
       height="26.894028"
       x="189.04919"
       y="397.88733" /></flowRegion><flowPara
     id="flowPara1577" /></flowRoot><text
   xml:space="preserve"
   style="font-style:normal;font-variant:normal;font-weight:normal;font-stretch:normal;font-size:10px;line-height:1.25;font-family:Arial;-inkscape-font-specification:'Arial, Normal';font-variant-ligatures:normal;font-variant-caps:normal;font-variant-numeric:normal;font-feature-settings:normal;text-align:start;letter-spacing:0px;word-spacing:0px;writing-mode:lr-tb;text-anchor:start;fill:#000000;fill-opacity:1;stroke:none;stroke-width:0.75"
   x="260.04791"
   y="-511.06854"
   id="text1585"
   transform="scale(1,-1)"><tspan
     sodipodi:role="line"
     id="tspan1583"
     x="260.04791"
     y="-511.06854"
     style="font-style:normal;font-variant:normal;font-weight:normal;font-stretch:normal;font-size:10px;font-family:Arial;-inkscape-font-specification:'Arial, Normal';font-variant-ligatures:normal;font-variant-caps:normal;font-variant-numeric:normal;font-feature-settings:normal;text-align:start;writing-mode:lr-tb;text-anchor:start;stroke-width:0.75">a) circuit</tspan></text>

<text
   xml:space="preserve"
   style="font-style:normal;font-variant:normal;font-weight:normal;font-stretch:normal;font-size:10px;line-height:1.25;font-family:Arial;-inkscape-font-specification:'Arial, Normal';font-variant-ligatures:normal;font-variant-caps:normal;font-variant-numeric:normal;font-feature-settings:normal;text-align:start;letter-spacing:0px;word-spacing:0px;writing-mode:lr-tb;text-anchor:start;fill:#000000;fill-opacity:1;stroke:none;stroke-width:0.75"
   x="237.26471"
   y="-393.93976"
   id="text1585-7"
   transform="scale(1,-1)"><tspan
     sodipodi:role="line"
     id="tspan1583-0"
     x="237.26471"
     y="-393.93976"
     style="font-style:normal;font-variant:normal;font-weight:normal;font-stretch:normal;font-size:10px;font-family:Arial;-inkscape-font-specification:'Arial, Normal';font-variant-ligatures:normal;font-variant-caps:normal;font-variant-numeric:normal;font-feature-settings:normal;text-align:start;writing-mode:lr-tb;text-anchor:start;stroke-width:0.75">b) memory module</tspan></text>

<path
   inkscape:connector-curvature="0"
   id="path18"
   style="fill:#ffffff;fill-opacity:1;fill-rule:nonzero;stroke:none"
   d="m 212.43631,468.63597 h 24.781 v -40.5 h -24.781 z" /><path
   inkscape:connector-curvature="0"
   id="path20"
   style="fill:#000000;fill-opacity:1;fill-rule:nonzero;stroke:none"
   d="m 211.83431,469.23697 h 1.203 v -41.102 h -1.203 z" /><path
   inkscape:connector-curvature="0"
   id="path22-9"
   style="fill:#000000;fill-opacity:1;fill-rule:nonzero;stroke:none"
   d="m 212.43631,469.23697 h 25.379 v -1.203 h -25.379 z" /><path
   inkscape:connector-curvature="0"
   id="path24-4"
   style="fill:#000000;fill-opacity:1;fill-rule:nonzero;stroke:none"
   d="m 236.61531,468.63597 h 1.199 v -41.102 h -1.199 z" /><path
   inkscape:connector-curvature="0"
   id="path26"
   style="fill:#000000;fill-opacity:1;fill-rule:nonzero;stroke:none"
   d="m 211.83431,428.73697 h 25.383 v -1.203 h -25.383 z" /><path
   inkscape:connector-curvature="0"
   id="path28"
   style="fill:#000000;fill-opacity:1;fill-rule:nonzero;stroke:none"
   d="m 212.55731,436.83497 h 0.297 v -0.598 h -0.297 z" /><path
   inkscape:connector-curvature="0"
   id="path30"
   style="fill:#000000;fill-opacity:1;fill-rule:nonzero;stroke:none"
   d="m 189.93631,436.83497 h 22.621 v -0.598 h -22.621 z" /><path
   inkscape:connector-curvature="0"
   id="path32"
   style="fill:#000000;fill-opacity:1;fill-rule:nonzero;stroke:none"
   d="m 212.61531,439.65497 -0.238,0.121 -0.301,-0.539 0.238,-0.121" /><path
   inkscape:connector-curvature="0"
   id="path34"
   style="fill:#000000;fill-opacity:1;fill-rule:nonzero;stroke:none"
   d="m 212.61531,439.65497 -0.301,-0.539 5.641,-2.879 h 0.238 l 0.602,0.297 -0.539,0.242" /><path
   inkscape:connector-curvature="0"
   id="path36"
   style="fill:#000000;fill-opacity:1;fill-rule:nonzero;stroke:none"
   d="m 212.55731,433.41697 -0.243,-0.121 -0.238,0.539 0.238,0.121" /><path
   inkscape:connector-curvature="0"
   id="path38"
   style="fill:#000000;fill-opacity:1;fill-rule:nonzero;stroke:none"
   d="m 218.19331,436.23697 -0.238,0.539 -5.641,-2.82 0.243,-0.539" /><text
   id="text72"
   style="font-variant:normal;font-weight:normal;font-size:9.96px;font-family:'Times New Roman';-inkscape-font-specification:TimesNewRomanPSMT;writing-mode:lr-tb;fill:#000000;fill-opacity:1;fill-rule:nonzero;stroke:none"
   transform="scale(1,-1)"
   x="381.99091"
   y="-453.44275"><tspan
     id="tspan70"
     sodipodi:role="line"
     y="-453.44275"
     x="381.99091 389.18204 393.5943 396.38312 400.79538 407.98651 413.0462">DataOut</tspan></text>

<text
   id="text82"
   style="font-variant:normal;font-weight:normal;font-size:9.96px;font-family:'Times New Roman';-inkscape-font-specification:TimesNewRomanPSMT;writing-mode:lr-tb;fill:#000000;fill-opacity:1;fill-rule:nonzero;stroke:none"
   transform="scale(1,-1)"
   x="142.29549"
   y="-454.77698"><tspan
     id="tspan80"
     sodipodi:role="line"
     y="-454.77698"
     x="142.29549 149.48662 154.49651 159.4765 162.82306 167.23534 171.13966">Address</tspan></text>

<text
   id="text4648-7-0-4"
   y="-457.03125"
   x="291.41565"
   style="font-style:normal;font-variant:normal;font-weight:normal;font-stretch:normal;font-size:14px;line-height:1.25;font-family:'Times New Roman';-inkscape-font-specification:'Times New Roman, Normal';font-variant-ligatures:normal;font-variant-caps:normal;font-variant-numeric:normal;font-feature-settings:normal;text-align:start;letter-spacing:0px;word-spacing:0px;writing-mode:lr-tb;text-anchor:start;fill:#000000;fill-opacity:1;stroke:none;stroke-width:0.75"
   xml:space="preserve"
   transform="scale(1,-1)"><tspan
     style="font-style:normal;font-variant:normal;font-weight:normal;font-stretch:normal;font-size:9px;font-family:'Times New Roman';-inkscape-font-specification:'Times New Roman, Normal';font-variant-ligatures:normal;font-variant-caps:normal;font-variant-numeric:normal;font-feature-settings:normal;text-align:start;writing-mode:lr-tb;text-anchor:start;stroke-width:0.75"
     y="-457.03125"
     x="291.41565"
     sodipodi:role="line"
     id="tspan1967">32 <tspan
   style="font-style:normal;font-variant:normal;font-weight:normal;font-stretch:normal;font-size:9px;font-family:Arial;-inkscape-font-specification:'Arial, Normal';font-variant-ligatures:normal;font-variant-caps:normal;font-variant-numeric:normal;font-feature-settings:normal;text-align:start;writing-mode:lr-tb;text-anchor:start;stroke-width:0.75"
   id="tspan1390-6">x</tspan> 8</tspan></text>

<path
   inkscape:connector-curvature="0"
   id="path22-1-2-1"
   style="fill:none;stroke:#000000;stroke-width:1.29999995;stroke-linecap:butt;stroke-linejoin:miter;stroke-miterlimit:3.8599999;stroke-dasharray:none;stroke-opacity:1"
   d="m 333.39838,417.17415 v 68.98224 h -61.61924 v -68.98224 z" /><text
   style="font-style:normal;font-variant:normal;font-weight:normal;font-stretch:normal;font-size:9px;font-family:'Times New Roman';-inkscape-font-specification:'Times New Roman, Normal';font-variant-ligatures:normal;font-variant-caps:normal;font-variant-numeric:normal;font-feature-settings:normal;text-align:start;writing-mode:lr-tb;text-anchor:start;fill:#000000;fill-opacity:1;fill-rule:nonzero;stroke:none;stroke-width:1"
   id="text186-5-8"
   x="352.20697"
   y="-462.08966"
   transform="scale(1,-1)"><tspan
     style="stroke-width:1"
     y="-462.08966"
     x="352.20697"
     sodipodi:role="line"
     id="tspan4696-4-8">8</tspan></text>

<path
   style="fill:none;stroke:#000000;stroke-width:0.75;stroke-linecap:butt;stroke-linejoin:miter;stroke-miterlimit:4;stroke-dasharray:none;stroke-opacity:1"
   d="m 349.93926,453.55112 5.87289,5.87289"
   id="path4694-1-6"
   inkscape:connector-curvature="0" /><path
   style="fill:none;stroke:#000000;stroke-width:0.99999994;stroke-linecap:butt;stroke-linejoin:miter;stroke-miterlimit:4;stroke-dasharray:none;stroke-opacity:1"
   d="M 377.62243,456.48756 H 333.57869"
   id="path1073-6-4"
   inkscape:connector-curvature="0" /><path
   inkscape:connector-curvature="0"
   id="path170-3-2"
   style="fill:none;stroke:#000000;stroke-width:1.10000002;stroke-linecap:butt;stroke-linejoin:miter;stroke-miterlimit:3.8599999;stroke-dasharray:none;stroke-opacity:1"
   d="m 373.23064,455.43077 4.9,1 -4.9,1.1 v -1.1 z" /><path
   inkscape:connector-curvature="0"
   id="path172-2-2"
   style="fill:#000000;fill-opacity:1;fill-rule:evenodd;stroke:none;stroke-width:0.09999999"
   d="m 373.23064,455.43756 4.9,1 -4.9,1.1 v -1.1" /><path
   inkscape:connector-curvature="0"
   id="path170-0"
   style="fill:none;stroke:#000000;stroke-width:1.10000002;stroke-linecap:butt;stroke-linejoin:miter;stroke-miterlimit:3.8599999;stroke-dasharray:none;stroke-opacity:1"
   d="m 265.58123,455.75295 4.9,1 -4.9,1.1 v -1.1 z" /><path
   inkscape:connector-curvature="0"
   id="path172-3"
   style="fill:#000000;fill-opacity:1;fill-rule:evenodd;stroke:none;stroke-width:0.09999999"
   d="m 265.58123,455.75295 4.9,1 -4.9,1.1 v -1.1" /><path
   style="fill:none;stroke:#000000;stroke-width:0.99999994;stroke-linecap:butt;stroke-linejoin:miter;stroke-miterlimit:4;stroke-dasharray:none;stroke-opacity:1"
   d="M 270.48123,456.75295 H 237.68749"
   id="path1073-1"
   inkscape:connector-curvature="0" /><text
   style="font-style:normal;font-variant:normal;font-weight:normal;font-stretch:normal;font-size:9px;font-family:'Times New Roman';-inkscape-font-specification:'Times New Roman, Normal';font-variant-ligatures:normal;font-variant-caps:normal;font-variant-numeric:normal;font-feature-settings:normal;text-align:start;writing-mode:lr-tb;text-anchor:start;fill:#000000;fill-opacity:1;fill-rule:nonzero;stroke:none;stroke-width:1"
   id="text186-7-0"
   x="255.79543"
   y="-462.55328"
   transform="scale(1,-1)"><tspan
     style="stroke-width:1"
     y="-462.55328"
     x="255.79543"
     sodipodi:role="line"
     id="tspan4696-5-1">5</tspan></text>

<path
   style="fill:none;stroke:#000000;stroke-width:0.75;stroke-linecap:butt;stroke-linejoin:miter;stroke-miterlimit:4;stroke-dasharray:none;stroke-opacity:1"
   d="m 253.52769,454.01474 5.87289,5.87289"
   id="path4694-3-1"
   inkscape:connector-curvature="0" /><path
   style="fill:none;stroke:#000000;stroke-width:0.99999994;stroke-linecap:butt;stroke-linejoin:miter;stroke-miterlimit:4;stroke-dasharray:none;stroke-opacity:1"
   d="M 212.18749,456.75295 H 179.39375"
   id="path1073-1-1"
   inkscape:connector-curvature="0" /><text
   style="font-style:normal;font-variant:normal;font-weight:normal;font-stretch:normal;font-size:9px;font-family:'Times New Roman';-inkscape-font-specification:'Times New Roman, Normal';font-variant-ligatures:normal;font-variant-caps:normal;font-variant-numeric:normal;font-feature-settings:normal;text-align:start;writing-mode:lr-tb;text-anchor:start;fill:#000000;fill-opacity:1;fill-rule:nonzero;stroke:none;stroke-width:1"
   id="text186-7-0-2"
   x="197.50169"
   y="-462.55331"
   transform="scale(1,-1)"><tspan
     style="stroke-width:1"
     y="-462.55331"
     x="197.50169"
     sodipodi:role="line"
     id="tspan4696-5-1-1">5</tspan></text>

<path
   style="fill:none;stroke:#000000;stroke-width:0.75;stroke-linecap:butt;stroke-linejoin:miter;stroke-miterlimit:4;stroke-dasharray:none;stroke-opacity:1"
   d="m 195.23395,454.01474 5.87289,5.87289"
   id="path4694-3-1-7"
   inkscape:connector-curvature="0" /><text
   id="text4648-7-0-4-9"
   y="-443.03494"
   x="291.20935"
   style="font-style:normal;font-variant:normal;font-weight:normal;font-stretch:normal;font-size:10px;line-height:1.25;font-family:'Times New Roman';-inkscape-font-specification:'Times New Roman, Normal';font-variant-ligatures:normal;font-variant-caps:normal;font-variant-numeric:normal;font-feature-settings:normal;text-align:start;letter-spacing:0px;word-spacing:0px;writing-mode:lr-tb;text-anchor:start;fill:#000000;fill-opacity:1;stroke:none;stroke-width:0.75"
   xml:space="preserve"
   transform="scale(1,-1)"><tspan
     sodipodi:role="line"
     id="tspan1994"
     x="291.20935"
     y="-443.03494">ROM</tspan></text>

</g></svg>
